<?xml version="1.0" encoding="UTF-8"?>
<svg id="Capa_2" data-name="Capa 2" xmlns="http://www.w3.org/2000/svg" viewBox="0 0 381.29 137.09">
  <defs>
    <style>
      .cls-1 {
        fill: #fff;
      }

      .cls-1, .cls-2 {
        fill-rule: evenodd;
      }

      .cls-2 {
        fill: #02273c;
      }
    </style>
  </defs>
  <g id="Capa_1-2" data-name="Capa 1">
    <path class="cls-2" d="M282.73,37.37c-.29-.06-.58-.14-.84-.24-3.53,.04-6.96,.4-10.35,1.1-.17,.17-.36,.33-.56,.48-12.13,24.37-24.3,48.72-36.46,73.07-.78,1.56-1.57,3.12-2.5,4.97-.17-.81-.28-1.26-.37-1.71-3.66-19.48-7.32-38.96-10.98-58.44-1-5.31-2-10.62-3-15.93-.3-1.62-1.06-2.83-2.62-2.85-3.42-.04-6.86,.07-10.41,.13-.55,3.41-1.04,6.44-1.51,9.48-2.15,13.8-4.28,27.59-6.43,41.38-2.24,14.37-4.5,28.74-6.74,43.11-.39,2.52,.83,4.12,3.11,4.15,1.37,0,2.73-.03,4.1-.06,1.46-.03,2.8-1.33,3.06-2.99,1.36-8.6,2.72-17.2,4.07-25.8,1.89-12.01,3.77-24.02,5.66-36.03,.34-2.14,.7-4.28,1.06-6.43,.37,.4,.5,.78,.57,1.18,1.54,8.14,3.09,16.28,4.62,24.43,2.53,13.51,5.05,27.03,7.58,40.54,.16,.86,.37,1.71,.59,2.55,.65,2.49,2.55,2.12,4.34,2.1,5.48-.08,5.02,.24,7.68-5.1,9.73-19.56,19.52-39.1,29.28-58.64,1.15-2.3,2.31-4.6,3.47-6.89,.11,1.26-.05,2.43-.23,3.59-1.71,10.86-3.43,21.71-5.13,32.56-1.57,9.97-3.13,19.93-4.66,29.9-.37,2.4,.88,4.02,3.04,4.05,1.23,.02,2.45-.02,3.68-.05,2.33-.06,3.3-1.02,3.7-3.62,2.29-14.68,4.56-29.37,6.88-44.05,2.43-15.42,4.85-30.84,7.37-46.24,.28-1.67,0-2.88-1.04-3.68Z"/>
    <path class="cls-1" d="M13.94,98.31c.71,2.48,1.2,4.88,2.07,7.05,4.81,12,15.6,17.05,27.39,12.95,10.79-3.76,18.26-13.46,19.05-24.73,.7-10.02-3.45-16.17-12.23-18.44-6.34-1.63-12.69-3.26-18.89-5.35-3.43-1.16-6.75-2.92-9.77-5-7.7-5.27-11.04-13.32-10.35-23.59C13.09,13.07,39.05-5.37,61.77,1.4c11.2,3.34,17.77,12.08,20.96,24.37-4.25,2.22-8.34,4.36-12.63,6.61-.35-.86-.71-1.63-.99-2.44-5.74-17-20.7-17.32-31.27-10.83-7.11,4.37-11.42,11.13-12.58,19.98-.87,6.72,.83,10.71,6.35,13.48,4.28,2.15,8.84,3.7,13.37,5.19,3.58,1.17,7.36,1.72,10.99,2.76,15.36,4.44,23.08,18.58,19.95,36.38-3.45,19.61-18.05,34.8-36.02,37.57-9.82,1.51-18.7-.48-26.41-6.82-5.66-4.66-9.19-11.13-11.69-18.38-.62-1.8-1.15-3.64-1.81-5.72,4.63-1.85,8.65-5.74,13.94-5.26Z"/>
    <path class="cls-2" d="M381.17,119.82c-9.84-.15-19.59-.29-29.43-.44,.01,1.94,.48,3.68,1.39,5.33,3.03,5.46,9.12,7.15,14.44,3.98,2-1.2,3.7-2.74,4.78-4.85,.33-.65,.41-1.44,.56-2.19,.06-.35-.01-.73-.03-1.33,1.96,.79,3.79,1.44,5.56,2.26,.96,.44,1.26,1.57,.86,2.53-2.39,5.71-8.89,12.18-17.75,11.98-7.23-.16-13.53-5.09-15.79-12.47-3.4-11.1,3.72-23.95,14.63-26.39,9.42-2.11,18.46,3.99,20.45,13.77,.52,2.57,.5,5.13,.32,7.84Zm-7.22-6.91c-.37-3.97-4.39-7.82-8.49-8.21-4.5-.43-7.81,1.6-10.53,4.81-.75,.88-1.28,1.96-2.02,3.1,7.21,.11,14.12,.2,21.03,.31Z"/>
    <path class="cls-1" d="M110.97,117.26c-9.48-.24-18.83-.47-28.27-.7-.14,2,.34,3.77,1.26,5.45,2.46,4.48,7.51,6.17,12.29,4.12,1.88-.8,3.49-1.98,4.84-3.48,1.21-1.34,2.28-2.8,1.81-5.03,1.91,.78,3.62,1.4,5.25,2.18,.95,.45,1.2,1.52,.75,2.48-2.8,5.85-10.26,12.64-19.9,10.9-6.47-1.16-10.51-5.27-12.26-11.5-3-10.68,4.6-22.95,15.49-25.17,8.83-1.8,17.09,3.86,18.72,12.81,.48,2.62,.34,5.23,.02,7.94Zm-26.65-7.15c6.74,.17,13.41,.33,20.08,.5-.62-3.81-3.34-6.87-6.75-7.65-5.12-1.17-11.06,2-13.33,7.16Z"/>
    <path class="cls-2" d="M296.86,97.27c7.77-.47,14.49,4.19,17.17,12.03,3.43,10-1.8,22.05-11.32,26.1-9.51,4.04-19.74-.75-22.84-10.89-3.38-11.07,2.59-22.44,12.4-26.07,1.47-.54,3.05-.79,4.58-1.17Zm-11.07,22.48c.02,.19,.04,.38,.07,.56,1.05,8,8.88,12.11,15.56,8.18,5.35-3.13,8.13-10.18,6.42-16.26-2-7.13-9.43-10.28-15.38-6.41-4.95,3.22-7.05,7.98-6.67,13.92Z"/>
    <path class="cls-1" d="M153.15,125.25c1.07-1.94,2.06-3.75,3.05-5.56,3.65-6.72,7.3-13.42,10.94-20.15,.27-.49,.54-.73,1.16-.7,1.97,.11,3.95,.14,5.93,.2,.26,.01,.51,.05,.91,.09-.86,1.54-1.66,2.98-2.47,4.42-5.49,9.83-11.01,19.64-16.46,29.5-.81,1.46-1.72,2.31-3.52,1.92-.6-.12-1.25-.05-1.88-.08-1.26-.04-1.78-.39-2.17-1.66-.81-2.64-1.58-5.29-2.35-7.94-2.6-8.91-5.2-17.82-7.79-26.74-.04-.16-.08-.33-.14-.56,2.03,.06,4,.05,5.95,.22,1.01,.08,1.34,.99,1.58,1.83,.98,3.39,1.94,6.78,2.92,10.17,1.36,4.72,2.72,9.43,4.08,14.14,.07,.24,.15,.48,.27,.88Z"/>
    <path class="cls-1" d="M111.28,133.93c1.45-12.32,3.26-24.46,4.82-36.69,2.17,.05,4.28,.1,6.43,.16-.01,.45-.02,.86-.03,1.39,.37-.17,.65-.3,.94-.44,3.58-1.66,7.3-2.15,11.09-.91,1.24,.41,2.35,1.28,3.48,1.99,.19,.13,.34,.57,.28,.81-.38,1.31-.8,2.63-1.28,3.91-.48,1.27-1.77,1.64-2.94,.91-3.71-2.31-8.03-1.83-11.05,1.32-1.22,1.27-1.94,2.85-2.17,4.63-.95,7.12-1.9,14.25-2.86,21.38-.15,1.07-.79,1.67-1.9,1.67-1.5,0-3-.06-4.79-.11Z"/>
    <path class="cls-2" d="M318.82,136.44c.88-12.99,2.1-25.8,3.09-38.7,2.25,.04,4.45,.07,6.69,.1,.01,.48,.02,.92,.04,1.41,.95-.41,1.81-.89,2.73-1.19,3.83-1.28,7.69-1.52,11.54,.45,2.4,1.23,2.43,1.35,1.76,3.88-.22,.81-.41,1.63-.7,2.41-.49,1.36-1.74,1.73-3.01,.96-3.91-2.38-8.53-1.8-11.41,1.52-1.2,1.39-1.85,3.09-2.01,5-.58,7.11-1.18,14.21-1.77,21.32-.03,.34-.03,.69-.06,1.03-.09,1.18-.73,1.85-1.91,1.86-1.55,.02-3.11-.04-4.97-.06Z"/>
    <path class="cls-1" d="M180.19,135.78c-2.18-.07-4.27-.13-6.52-.2,1.58-12.13,3.16-24.21,4.73-36.34,2.2,.07,4.33,.13,6.59,.2-1.6,12.11-3.2,24.18-4.81,36.33Z"/>
    <path class="cls-1" d="M183.2,89.58c-2.21-.05-3.88-1.77-3.84-3.93,.04-2.33,2.06-4.19,4.49-4.12,2.17,.06,3.84,1.75,3.79,3.88-.05,2.37-2.04,4.24-4.44,4.17Z"/>
  </g>
</svg>