<?xml version="1.0" encoding="UTF-8"?>
<svg id="Capa_2" data-name="Capa 2" xmlns="http://www.w3.org/2000/svg" viewBox="0 0 512.16 437.06">
  <defs>
    <style>
      .cls-1 {
        fill: #f9f9f9;
        fill-rule: evenodd;
      }
    </style>
  </defs>
  <g id="Capa_1-2" data-name="Capa 1">
    <g>
      <path class="cls-1" d="M506.01,113.97c-3.14,0-6.04,0-8.95,0-19.01-.07-38.02-.12-57.03-.22-16.65-.09-33.29-.24-49.94-.4-.83,0-1.79-.08-2.47-.49-2.74-1.64-5.4-3.41-8.54-5.43,1.06-.09,1.64-.19,2.22-.18,21.3,.14,42.59,.28,63.88,.42,20.44,.14,40.88,.27,61.31,.4,4.53,.03,5.76,1.32,5.67,5.76-.27,13.28-.53,26.57-.78,39.86-.46,24.57-.91,49.15-1.37,73.73-.28,15-.57,30-.85,45.01-.43,22.72-.86,45.43-1.28,68.15-.14,7.36-.28,14.72-.42,22.07-.08,3.94-1.53,5.39-5.52,5.38-34.16-.07-68.32-.16-102.47-.23-2.89,0-2.89,0-2.89,2.9v35.52h79.62v30.85H215.28v-30.72h75.44c0-2.65-.01-4.99,0-7.33,.01-1.62-1.14-1.28-2.11-1.32-8.41-.38-16.91-.17-25.22-1.34-9.09-1.28-18.03-3.69-26.97-5.88-11.24-2.76-20.62-9.56-30.82-14.6-10.74-5.31-19.55-13.21-28.48-20.95-9.69-8.4-17.48-18.36-24.38-29.13-10.02-15.64-16.67-32.61-20.54-50.7-3.52-16.49-4.22-33.14-2.18-49.89,.13-1.04,.17-2.09,.29-3.72-22.9,16.86-47.6,21.88-74.51,13.7-14.73-4.47-27.28-12.68-36.87-24.7C-1.79,184.5-5.37,155.99,7.54,125.38c20-37.86,51.6-51.19,93.12-44.19-9.64-22.28-7.62-43.35,8.37-62.23C118.65,7.61,131.34,1.47,146.16,.21c30.22-2.58,56.83,19.06,60.34,49.24,2.05,17.66-3.3,33.13-15.77,45.82-12.47,12.69-27.93,17.77-46.15,16.46,8.32,11.8,13.31,24.4,15.02,38.76,.82-.74,1.32-1.08,1.67-1.53,10.51-13.59,23-24.88,37.65-33.98,9.05-5.63,18.01-11.28,27.99-15.14,23.42-9.07,47.59-12.4,72.59-9.77,21.56,2.28,41.75,8.79,60.53,19.59,23.14,13.3,41.68,31.39,55.41,54.3,16.3,27.2,23.68,56.7,21.86,88.33-1.88,32.64-13.18,61.8-33.42,87.49-5.69,7.22-12.17,13.64-19.23,19.48-.76,.63-1.5,1.29-2.58,2.22,.92,.11,1.43,.22,1.94,.22,38.38,.08,76.76,.13,115.13,.26,1.96,0,2.41-.71,2.43-2.45,.17-13.14,.38-26.29,.61-39.43,.28-16,.58-32,.88-48,.27-14.21,.56-28.42,.83-42.64,.31-16.29,.59-32.57,.89-48.85,.26-13.93,.55-27.86,.82-41.78,.14-7.36,.28-14.71,.42-22.07,.01-.76,0-1.53,0-2.74Zm-87.2,129.05c-.38-75.72-62.2-136.55-138.21-135.07-74.74,1.45-134.33,62.78-132.86,138.23,1.46,74.78,62.7,133.51,136.77,132.83,74.86-.7,134.5-61.64,134.31-135.98ZM8.64,159.41c-.02,10.63,2.64,21.8,7.47,31.41,1.41,2.82,1.59,2.84,3.86,.78,11.96-10.85,23.9-21.7,35.92-32.49,1.44-1.29,1.71-2.43,1.2-4.28-7.39-26.56,13.24-52.21,40.73-50.72,2.02,.11,4.11,.14,4.97,2.52,.83,2.28-.68,3.6-2.09,4.95-5.57,5.34-11.1,10.72-16.72,16-1.27,1.19-1.63,2.3-1.12,3.96,1.76,5.74,3.46,11.49,5.09,17.27,.42,1.48,1.26,2.23,2.68,2.7,5.43,1.78,10.88,3.53,16.23,5.53,2.16,.81,3.53,.36,5.09-1.18,5.54-5.47,11.21-10.81,16.83-16.21,1.25-1.2,2.65-2.03,4.43-1.3,1.85,.76,2.31,2.32,2.35,4.18,.76,28.22-25.95,48.19-52.75,39.38-1.5-.49-2.47-.29-3.58,.86-11.54,12-23.12,23.96-34.72,35.89-1.02,1.05-1.08,1.79,.27,2.44,3.02,1.46,5.98,3.07,9.09,4.31,26.45,10.56,56.88,4.21,76.79-16.1,1.57-1.61,2.82-3.84,3.45-6,3.47-11.91,7.78-23.48,13.99-34.24,2.49-4.31,3.52-8.6,3.32-13.61-.96-24.34-17.22-51.99-43.23-62.27-16.25-6.42-32.73-7.6-49.48-2.27-30.22,9.6-50.03,36.73-50.08,68.46ZM197.68,72.14c.37-.35,.51-.43,.56-.55,.12-.26,.2-.53,.29-.81,2.96-9.55,3.15-19.18,.28-28.73C190.25,13.53,160.22-1.09,132.49,9.65c-28.87,11.18-40.52,47.1-23.62,73,.88,1.36,2.29,2.63,3.75,3.31,8.65,4,16.49,9.16,23.23,15.89,1.83,1.82,3.83,2.95,6.32,3.24,2.55,.3,5.12,.46,7.67,.73,1.46,.15,2.05-.39,2.02-1.92-.07-3.28,.01-6.57,.03-9.86,.03-4.4,.89-5.22,5.3-5.24,.81,0,1.84-.05,2.38-.52,2.06-1.79,2.36-4.38,1.02-6.92-1.5-2.85-1.08-4.36,1.73-6,3.15-1.83,6.32-3.63,9.48-5.44,3.94-2.26,5-1.94,7.33,2.02,.4,.68,1.03,1.51,1.72,1.69,3.04,.82,4.68,.05,6.42-2.72,1.55-2.48,3.19-2.89,5.77-1.44,1.55,.87,3.08,1.76,4.65,2.66Zm-28.64,30.03c6.1-1.23,18.65-10.57,20.58-15.31-4.28-3.05-11.17-2.51-15.91,1.25-4.31,3.41-6.42,9.79-4.67,14.06Z"/>
      <path class="cls-1" d="M328.33,346.62c-.11,3.16-.37,9.22-.5,15.3-.04,1.94-.73,3.19-2.65,3.55-5.33,1-10.63,2.19-16,2.84-8.15,.98-16.33,1.83-24.52,2.28-11.78,.65-23.12-2.2-34.4-5.17-6.22-1.63-12.37-3.51-18.58-5.17-2.2-.59-3.15-1.64-2.99-4.07,.72-10.98,.86-22,1.98-32.94,1.39-13.54,6.48-25.65,15.89-35.8,17.28-18.64,48.17-19.08,65.98-.9,9.64,9.84,14.48,21.88,15.66,35.33,.63,7.22,.11,14.55,.11,24.74Z"/>
      <path class="cls-1" d="M307.35,237.02c-.21,16.81-13.72,30.06-30.4,29.8-16.62-.25-29.71-13.78-29.51-30.46,.21-16.46,13.81-29.69,30.28-29.46,16.58,.24,29.83,13.71,29.62,30.12Z"/>
      <path class="cls-1" d="M338.68,348.96c1.01-7.64,1.5-15.38,3.15-22.88,3.13-14.27,16.38-21.88,29.79-17.59,6.08,1.94,10.52,5.94,13.26,11.69,.41,.85,.45,2.46-.08,3.08-8.35,9.68-16.86,19.29-27.48,26.55-5.32,3.64-11.38,6.22-17.1,9.27-1.46,.78-2.15,.38-2-1.33,.25-2.92,.48-5.83,.72-8.75-.09-.01-.18-.02-.26-.04Z"/>
      <path class="cls-1" d="M221.69,340.65c0,4.36,0,8.71,0,13.06,0,2.3-.32,2.39-2.53,1.62-7.67-2.66-13.21-8.35-19.18-13.41-7.19-6.1-14.12-12.48-19.73-20.15-2.66-3.65-2.74-4,.06-7.55,5.87-7.43,15.67-10.58,24.8-7.98,9.22,2.62,16,10.5,16.79,20.09,.39,4.74,.07,9.55,.07,14.32h-.28Z"/>
      <path class="cls-1" d="M333.9,146.56c-.29,.51-.53,1.06-.89,1.52-12.66,15.84-26.63,30.41-41.96,43.67-2.8,2.42-5.54,5.18-9.67,4.84-1.64-.14-3.56-.43-4.79-1.37-5.54-4.27-10.95-8.71-16.24-13.28-3-2.59-3.19-5.99-.92-8.52,2.26-2.51,5.58-2.53,8.58,0,3.66,3.08,7.26,6.23,10.94,9.3,2.39,2,2.73,1.89,5.06-.11,8.35-7.15,16.47-14.61,25.21-21.26,7.02-5.34,14.81-9.68,22.27-14.43,.61-.38,1.36-.53,2.05-.78,.12,.15,.24,.29,.36,.43Z"/>
      <path class="cls-1" d="M202.32,297.86c-7.55-.03-13.59-6.09-13.58-13.63,.01-7.48,6.16-13.65,13.61-13.67,7.55-.02,13.7,6.19,13.68,13.81-.03,7.53-6.11,13.52-13.71,13.49Z"/>
      <path class="cls-1" d="M378.51,286.83c-.06,7.68-6.19,13.71-13.84,13.6-7.39-.1-13.46-6.25-13.45-13.62,.01-7.62,6.18-13.75,13.78-13.7,7.55,.05,13.56,6.15,13.51,13.71Z"/>
      <path class="cls-1" d="M152.82,53.09c-.35,.89-.54,1.5-.83,2.06-1.29,2.53-.15,4.57,2.73,4.7,2.01,.09,3.04,1.04,3.04,3.06,0,2.64-.03,5.29-.05,7.93-.01,1.95-.98,2.81-2.93,2.85-2.96,.06-4.2,2.18-2.81,4.83,.98,1.86,.52,3.11-1.21,4.09-2.24,1.26-4.48,2.52-6.69,3.83-1.78,1.05-3.05,.6-4.13-1.1-1.51-2.38-3.92-2.36-5.49-.01-1.21,1.8-2.29,2.11-4.14,1.06-2.24-1.26-4.46-2.56-6.66-3.89-1.92-1.15-2.16-2.08-1.14-4.07,1.32-2.59,.22-4.63-2.61-4.82-2.34-.16-3.07-.87-3.07-3.18,0-2.57,.08-5.14,.06-7.71,0-1.95,.88-2.85,2.84-2.92,3.01-.11,4.21-2.18,2.87-4.81-1-1.96-.75-2.96,1.15-4.08,2.21-1.31,4.48-2.53,6.69-3.84,1.76-1.04,3.05-.68,4.14,1.05,1.6,2.55,3.91,2.55,5.56,0,1.04-1.61,2.3-2.05,3.98-1.07,2.35,1.36,4.72,2.69,7.01,4.14,.7,.45,1.17,1.28,1.72,1.91Zm-15.66,23.1c5.22,.03,9.46-4.1,9.54-9.3,.08-5.27-4.14-9.53-9.47-9.58-5.09-.05-9.49,4.33-9.47,9.4,.03,5.17,4.27,9.44,9.4,9.47Z"/>
      <path class="cls-1" d="M161.14,43.9c-2.85-4.19,.96-4.46,2.78-5.84,.51-.38,1.11-.64,1.67-.97,1.25-.73,2.21-.55,3.11,.69,1.19,1.64,2.46,1.63,3.7-.03,.91-1.22,1.86-1.39,3.11-.62,1.4,.86,2.8,1.71,4.25,2.49,1.36,.73,1.52,1.68,.92,3.02-.8,1.79-.12,2.97,1.88,3.19,1.56,.17,2.09,.97,2.07,2.41-.03,1.57,0,3.14-.02,4.71,0,1.5-.6,2.35-2.27,2.46-1.81,.12-2.53,1.43-1.76,3.12,.69,1.5,.31,2.43-1.08,3.15-.95,.5-1.88,1.04-2.78,1.6-1.81,1.14-3.4,2.03-4.98-.57-.65-1.08-2.24-.89-3.03,.42-.99,1.64-2.13,1.63-3.56,.66-.89-.59-1.83-1.11-2.78-1.6-1.8-.93-3.13-1.82-1.83-4.28,.64-1.21-.25-2.54-1.88-2.61-1.79-.07-2.35-.97-2.26-2.63,.07-1.35,.05-2.71-.02-4.07-.09-1.79,.45-2.78,2.46-2.97,.8-.07,1.51-1.12,2.3-1.75Zm9.31,13.14c3.5,0,6.43-2.84,6.5-6.33,.07-3.61-2.84-6.6-6.42-6.59-3.66,0-6.51,2.88-6.48,6.52,.03,3.54,2.88,6.39,6.4,6.4Z"/>
    </g>
  </g>
</svg>